<svg width="17" height="12" viewBox="0 0 17 12" fill="none" xmlns="http://www.w3.org/2000/svg">
<path d="M16.2109 0.664062C14.6953 1.58594 13.4922 2.59375 12.6016 3.6875C11.7109 4.78125 11.2109 5.875 11.1016 6.96875C12.0234 6.15625 12.8594 5.75 13.6094 5.75C14.0312 5.75 14.3594 5.90625 14.5938 6.21875C14.8281 6.51562 14.9453 6.92188 14.9453 7.4375C14.9453 8.10938 14.75 8.79688 14.3594 9.5C13.9844 10.1875 13.4922 10.7578 12.8828 11.2109C12.2734 11.6641 11.6484 11.8906 11.0078 11.8906C9.60156 11.8906 8.89844 10.9531 8.89844 9.07812C8.89844 7.96875 9.17969 6.85156 9.74219 5.72656C10.3047 4.60156 11.1172 3.54688 12.1797 2.5625C13.2578 1.5625 14.5156 0.710938 15.9531 0.0078125L16.2109 0.664062ZM8.24219 0.664062C6.72656 1.58594 5.52344 2.59375 4.63281 3.6875C3.74219 4.78125 3.24219 5.875 3.13281 6.96875C4.05469 6.15625 4.89062 5.75 5.64062 5.75C6.0625 5.75 6.39062 5.90625 6.625 6.21875C6.85938 6.51562 6.97656 6.92188 6.97656 7.4375C6.97656 8.10938 6.78125 8.79688 6.39062 9.5C6.01562 10.1875 5.52344 10.7578 4.91406 11.2109C4.30469 11.6641 3.67969 11.8906 3.03906 11.8906C1.63281 11.8906 0.929688 10.9531 0.929688 9.07812C0.929688 7.96875 1.21094 6.85156 1.77344 5.72656C2.33594 4.60156 3.14844 3.54688 4.21094 2.5625C5.28906 1.5625 6.54688 0.710938 7.98438 0.0078125L8.24219 0.664062Z" fill="#828282"/>
</svg>
